<?xml version="1.0" encoding="UTF-8" ?>
<!DOCTYPE svg PUBLIC "-//W3C//DTD SVG 1.1//EN" "http://www.w3.org/Graphics/SVG/1.1/DTD/svg11.dtd">
<svg width="1044pt" height="1044pt" viewBox="0 0 1044 1044" version="1.1" xmlns="http://www.w3.org/2000/svg">
<g id="#ffffffff">
<path fill="#ffffff" opacity="1.00" d=" M 389.85 146.93 C 396.59 146.94 403.33 146.93 410.07 146.93 C 410.06 178.64 410.06 210.36 410.07 242.07 C 403.33 242.07 396.59 242.06 389.85 242.07 C 389.86 210.36 389.86 178.64 389.85 146.93 Z" />
<path fill="#ffffff" opacity="1.00" d=" M 453.90 146.93 C 460.62 146.94 467.35 146.94 474.07 146.93 C 474.07 178.64 474.07 210.36 474.07 242.07 C 467.35 242.06 460.62 242.06 453.90 242.07 C 453.91 210.36 453.90 178.64 453.90 146.93 Z" />
<path fill="#ffffff" opacity="1.00" d=" M 500.90 146.93 C 504.03 146.94 507.16 146.94 510.29 146.92 C 510.29 178.64 510.29 210.36 510.29 242.08 C 507.16 242.06 504.03 242.06 500.90 242.07 C 500.90 210.36 500.90 178.64 500.90 146.93 Z" />
<path fill="#ffffff" opacity="1.00" d=" M 515.55 146.89 C 521.05 146.92 526.56 146.90 532.07 146.90 C 532.07 178.37 532.05 209.85 532.09 241.32 C 526.57 241.32 521.05 241.30 515.54 241.33 C 515.56 209.85 515.55 178.37 515.55 146.89 Z" />
<path fill="#ffffff" opacity="1.00" d=" M 537.29 146.94 C 540.55 146.94 543.81 146.93 547.07 146.93 C 547.07 178.64 547.07 210.35 547.07 242.07 C 543.80 242.07 540.54 242.09 537.28 242.01 C 537.33 210.32 537.29 178.63 537.29 146.94 Z" />
<path fill="#ffffff" opacity="1.00" d=" M 573.92 146.93 C 580.64 146.94 587.36 146.94 594.08 146.93 C 594.08 178.64 594.08 210.36 594.08 242.07 C 587.36 242.06 580.64 242.06 573.92 242.07 C 573.93 210.36 573.93 178.64 573.92 146.93 Z" />
<path fill="#ffffff" opacity="1.00" d=" M 427.84 147.68 C 430.96 147.69 434.08 147.69 437.21 147.68 C 437.17 179.16 437.19 210.64 437.20 242.12 C 434.08 242.11 430.97 242.11 427.85 242.12 C 427.86 210.64 427.88 179.16 427.84 147.68 Z" />
<path fill="#ffffff" opacity="1.00" d=" M 610.81 147.68 C 613.92 147.69 617.04 147.69 620.16 147.68 C 620.13 179.16 620.15 210.64 620.15 242.12 C 617.04 242.11 613.93 242.11 610.82 242.12 C 610.82 210.64 610.85 179.16 610.81 147.68 Z" />
<path fill="#ffffff" opacity="1.00" d=" M 639.74 147.67 C 645.52 147.69 651.30 147.68 657.08 147.68 C 657.05 179.16 657.07 210.64 657.07 242.12 C 651.30 242.11 645.52 242.10 639.75 242.13 C 639.76 210.64 639.78 179.16 639.74 147.67 Z" />
<path fill="#ffffff" opacity="1.00" d=" M 386.12 251.25 C 388.05 250.80 390.05 250.83 392.03 250.83 C 479.00 250.83 565.98 250.82 652.95 250.83 C 668.30 251.32 683.06 259.52 691.89 272.04 C 697.33 279.60 700.46 288.72 701.15 297.98 C 701.19 385.65 701.15 473.32 701.17 561.00 C 700.63 573.42 695.33 585.67 686.41 594.38 C 677.92 603.10 666.08 608.37 653.98 609.16 C 565.97 609.18 477.97 609.19 389.96 609.15 C 377.88 608.31 366.02 603.10 357.57 594.36 C 348.87 585.90 343.65 574.08 342.84 562.02 C 342.81 474.36 342.83 386.69 342.83 299.03 C 343.30 283.67 351.54 268.92 364.05 260.08 C 370.55 255.40 378.22 252.46 386.12 251.25 M 364.77 283.51 C 362.59 288.40 363.23 293.83 363.16 299.02 C 363.15 387.68 363.14 476.33 363.17 564.99 C 363.26 576.50 373.46 586.80 385.00 586.85 C 476.33 586.87 567.66 586.86 658.99 586.85 C 670.52 586.79 680.72 576.52 680.82 565.01 C 680.87 474.00 680.82 382.99 680.84 291.98 C 681.10 280.54 671.54 270.11 660.14 269.29 C 652.22 269.07 644.28 269.23 636.36 269.22 C 636.33 291.28 636.29 313.35 636.38 335.41 C 640.85 336.76 645.05 339.27 647.90 343.05 C 653.48 349.96 653.86 360.45 648.88 367.79 C 644.79 374.37 636.71 378.07 629.06 377.23 C 616.84 376.47 607.28 363.41 610.34 351.53 C 612.03 343.82 618.23 337.47 625.84 335.46 C 625.85 313.37 625.84 291.29 625.84 269.20 C 611.07 269.23 596.29 269.11 581.52 269.26 C 581.57 293.14 581.67 317.02 581.72 340.90 C 581.82 345.68 580.06 350.18 577.73 354.27 C 577.00 354.63 576.29 355.01 575.59 355.41 C 574.86 358.25 572.42 360.24 571.46 362.93 L 571.11 363.06 C 569.38 366.66 566.30 369.45 564.81 373.15 C 562.31 373.55 561.79 375.91 561.43 378.03 C 561.81 378.62 562.20 379.22 562.60 379.82 C 566.39 386.30 566.26 394.82 562.32 401.20 C 558.37 408.24 549.96 412.25 542.00 411.35 C 531.67 410.65 523.04 401.25 522.82 390.97 C 522.35 380.88 529.97 371.20 539.94 369.39 C 543.90 368.06 547.92 369.52 551.87 369.98 C 557.36 362.07 562.90 354.20 568.45 346.34 C 569.30 345.00 570.69 343.76 570.57 342.03 C 570.70 317.76 570.78 293.48 570.81 269.20 C 509.20 269.18 447.58 269.20 385.96 269.20 C 376.86 269.12 368.01 274.96 364.77 283.51 M 627.57 348.66 C 622.66 350.77 621.40 358.08 625.22 361.75 C 628.13 365.12 633.90 365.13 636.93 361.90 C 640.18 358.86 640.15 353.06 636.73 350.16 C 634.46 347.63 630.54 347.61 627.57 348.66 M 540.15 397.31 C 542.79 400.25 546.51 398.35 549.57 397.37 C 549.99 396.42 550.42 395.48 550.85 394.54 C 555.17 389.37 549.49 380.61 542.90 382.15 C 535.39 382.59 533.39 394.35 540.15 397.31 Z" />
<path fill="#ffffff" opacity="1.00" d=" M 713.84 295.92 C 729.56 295.65 745.24 296.59 760.95 296.69 C 776.70 296.88 792.44 296.92 808.18 296.92 C 808.14 302.64 808.11 308.37 808.11 314.10 C 794.75 314.06 781.39 314.06 768.02 314.08 C 749.93 313.27 731.82 313.21 713.71 313.14 C 713.77 307.40 713.82 301.66 713.84 295.92 Z" />
<path fill="#ffffff" opacity="1.00" d=" M 238.80 296.42 C 270.25 297.26 301.72 296.59 333.17 297.14 C 333.11 302.86 333.09 308.59 333.11 314.31 C 301.61 313.75 270.10 314.63 238.63 313.41 C 238.73 307.74 238.79 302.08 238.80 296.42 Z" />
<path fill="#ffffff" opacity="1.00" d=" M 364.23 315.74 C 393.17 315.72 422.11 315.74 451.06 315.72 C 453.44 315.74 455.85 315.62 458.22 316.05 C 461.41 316.95 463.89 319.24 466.47 321.20 C 471.74 325.37 477.06 329.47 482.36 333.61 C 487.04 331.14 492.57 329.08 497.88 330.55 C 504.38 331.66 510.25 336.01 513.11 341.96 C 516.41 348.53 515.92 356.85 511.81 362.96 C 507.52 369.86 498.93 373.45 490.97 372.20 C 477.79 370.73 468.61 354.69 474.97 342.79 C 469.18 337.91 462.91 333.63 456.99 328.91 C 455.71 328.11 454.59 326.68 452.98 326.69 C 436.31 327.11 419.63 326.49 402.97 327.08 C 389.97 326.97 376.96 327.23 363.96 326.94 C 364.09 323.21 364.14 319.47 364.23 315.74 M 491.50 343.58 C 484.85 345.40 483.94 355.73 490.06 358.76 C 494.34 361.55 500.75 358.95 502.05 354.07 C 504.57 347.99 497.56 341.05 491.50 343.58 Z" />
<path fill="#ffffff" opacity="1.00" d=" M 238.23 332.89 C 252.81 332.94 267.40 332.93 281.98 332.93 C 299.00 333.73 316.04 333.75 333.08 333.86 C 333.06 336.97 333.06 340.08 333.08 343.19 C 306.40 342.84 279.71 343.54 253.06 342.53 C 248.00 342.43 242.95 342.32 237.90 342.31 C 237.91 339.16 238.03 336.03 238.23 332.89 Z" />
<path fill="#ffffff" opacity="1.00" d=" M 713.36 332.65 C 744.93 333.24 776.53 332.45 808.09 333.45 C 808.06 336.66 808.06 339.87 808.07 343.08 C 776.38 343.39 744.72 341.81 713.03 342.09 C 713.14 338.94 713.25 335.80 713.36 332.65 Z" />
<path fill="#ffffff" opacity="1.00" d=" M 237.80 358.92 C 244.85 358.95 251.91 358.93 258.96 358.92 C 283.34 359.95 307.75 359.84 332.15 359.91 C 332.10 366.64 332.09 373.36 332.09 380.08 C 300.57 380.36 269.08 378.76 237.55 379.11 C 237.67 372.38 237.75 365.65 237.80 358.92 Z" />
<path fill="#ffffff" opacity="1.00" d=" M 712.83 358.85 C 725.88 358.94 738.94 358.92 751.99 358.93 C 770.39 358.71 788.77 359.91 807.18 359.77 C 807.12 366.45 807.09 373.12 807.10 379.80 C 775.62 378.99 744.12 379.07 712.63 379.08 C 712.73 372.34 712.80 365.59 712.83 358.85 Z" />
<path fill="#ffffff" opacity="1.00" d=" M 364.02 369.93 C 378.35 369.94 392.68 369.94 407.01 369.93 C 411.03 370.07 415.26 370.80 418.58 373.23 C 424.97 377.94 431.10 382.99 437.49 387.69 C 439.18 388.50 440.86 386.85 442.48 386.46 C 448.38 384.68 455.17 385.29 460.37 388.75 C 467.90 393.30 471.78 403.03 469.60 411.53 C 468.23 416.71 465.11 421.57 460.44 424.34 C 453.67 428.80 444.35 428.80 437.59 424.32 C 429.02 419.09 425.36 407.22 429.64 398.10 C 423.50 392.91 417.04 388.13 410.79 383.07 C 395.18 383.07 379.57 383.08 363.95 383.07 C 363.90 378.69 363.78 374.31 364.02 369.93 M 447.29 398.34 C 440.56 399.48 438.46 409.22 443.88 413.16 C 448.43 417.09 456.46 414.10 457.16 408.09 C 458.51 402.50 452.84 396.92 447.29 398.34 Z" />
<path fill="#ffffff" opacity="1.00" d=" M 236.93 405.93 C 268.63 406.66 300.35 407.07 332.07 406.93 C 332.07 410.19 332.07 413.46 332.03 416.73 C 300.34 415.99 268.63 416.07 236.93 416.07 C 236.93 412.69 236.93 409.31 236.93 405.93 Z" />
<path fill="#ffffff" opacity="1.00" d=" M 711.94 405.90 C 730.94 406.09 749.97 405.55 768.96 406.39 C 781.66 406.69 794.37 406.80 807.07 406.86 C 807.06 409.97 807.05 413.08 807.08 416.19 C 786.03 416.05 764.99 416.06 743.95 416.07 C 733.33 415.65 722.71 415.25 712.09 415.39 C 711.85 412.23 711.92 409.06 711.94 405.90 Z" />
<path fill="#ffffff" opacity="1.00" d=" M 236.88 420.93 C 246.56 420.72 256.22 421.39 265.90 421.52 C 287.68 421.91 309.47 421.93 331.25 421.92 C 331.19 427.46 331.14 433.00 331.15 438.54 C 306.12 437.98 281.07 438.12 256.03 438.07 C 249.63 438.01 243.22 438.27 236.84 437.74 C 236.77 432.14 236.89 426.53 236.88 420.93 Z" />
<path fill="#ffffff" opacity="1.00" d=" M 711.89 420.88 C 727.26 420.95 742.63 420.93 758.00 420.93 C 774.08 421.67 790.19 421.74 806.29 421.85 C 806.23 427.27 806.18 432.70 806.17 438.13 C 789.12 438.07 772.08 438.05 755.04 438.08 C 740.64 437.44 726.23 437.30 711.82 437.18 C 711.86 431.74 711.88 426.31 711.89 420.88 Z" />
<path fill="#ffffff" opacity="1.00" d=" M 633.61 430.69 C 637.04 427.10 641.96 424.74 646.96 424.88 C 657.00 424.91 667.04 424.89 677.08 424.89 C 677.07 428.62 677.07 432.36 677.08 436.09 C 667.04 436.10 657.00 436.05 646.96 436.11 C 644.70 436.05 642.73 437.39 641.16 438.88 C 634.02 445.86 626.81 452.76 619.76 459.82 C 615.74 463.38 610.23 464.91 604.96 465.08 C 589.43 465.04 573.90 465.10 558.38 465.05 C 556.48 472.46 550.40 478.59 542.91 480.29 C 530.76 483.96 516.95 473.64 516.82 460.97 C 516.19 453.38 520.29 445.65 526.84 441.79 C 533.03 437.86 541.33 437.66 547.78 441.11 C 553.07 443.91 557.06 449.04 558.45 454.88 C 575.38 455.01 592.30 454.17 609.22 453.87 C 611.83 453.40 613.71 451.29 615.49 449.48 C 621.44 443.13 627.52 436.90 633.61 430.69 M 536.45 451.53 C 533.50 452.13 530.84 454.23 529.97 457.18 C 527.96 462.25 532.55 468.64 538.07 467.98 C 544.26 468.45 548.00 460.86 545.21 455.76 C 543.50 452.79 539.87 450.84 536.45 451.53 Z" />
<path fill="#ffffff" opacity="1.00" d=" M 236.89 442.81 C 257.26 442.97 277.64 442.92 298.01 442.93 C 309.10 443.49 320.21 443.60 331.31 443.74 C 331.25 446.86 331.23 449.99 331.22 453.12 C 311.84 452.87 292.44 453.48 273.08 452.62 C 261.01 452.32 248.93 452.22 236.86 452.14 C 236.88 449.03 236.89 445.92 236.89 442.81 Z" />
<path fill="#ffffff" opacity="1.00" d=" M 711.89 442.34 C 743.38 443.08 774.88 442.90 806.38 442.92 C 806.32 446.30 806.27 449.69 806.25 453.08 C 791.15 453.26 776.08 452.25 760.98 452.28 C 744.61 452.10 728.25 452.08 711.88 452.08 C 711.89 448.83 711.90 445.58 711.89 442.34 Z" />
<path fill="#ffffff" opacity="1.00" d=" M 392.75 488.85 C 389.06 476.74 399.36 462.89 412.01 462.77 C 420.16 462.07 428.47 466.79 432.04 474.16 C 434.25 478.05 434.57 482.64 434.13 487.01 C 432.98 495.37 426.27 502.53 418.05 504.39 C 418.12 531.08 418.13 557.76 418.47 584.44 C 414.94 584.42 411.41 584.42 407.89 584.43 C 407.95 557.75 407.86 531.07 407.93 504.39 C 400.61 502.27 394.43 496.38 392.75 488.85 M 409.37 476.40 C 404.27 478.92 403.40 486.64 407.84 490.18 C 412.12 493.93 419.80 491.83 421.23 486.19 C 423.74 479.58 415.45 472.65 409.37 476.40 Z" />
<path fill="#ffffff" opacity="1.00" d=" M 236.65 479.31 C 242.14 478.24 248.20 479.46 253.92 479.33 C 279.63 479.99 305.36 479.90 331.09 479.93 C 331.07 486.65 331.06 493.37 331.07 500.10 C 312.07 499.90 293.04 500.46 274.05 499.60 C 261.40 499.31 248.75 499.19 236.09 499.14 C 236.38 492.53 236.41 485.91 236.65 479.31 Z" />
<path fill="#ffffff" opacity="1.00" d=" M 711.70 478.89 C 724.80 478.96 737.90 478.93 751.00 478.93 C 769.36 479.75 787.74 479.77 806.11 479.88 C 806.07 486.61 806.07 493.34 806.07 500.07 C 796.05 500.28 786.05 499.61 776.03 499.47 C 754.47 499.09 732.90 499.07 711.34 499.08 C 711.50 492.35 711.63 485.62 711.70 478.89 Z" />
<path fill="#ffffff" opacity="1.00" d=" M 637.72 483.69 C 640.89 481.19 644.96 479.69 649.03 479.84 C 659.40 479.82 669.78 479.83 680.16 479.83 C 680.14 483.91 680.16 487.99 680.14 492.07 C 669.75 492.08 659.35 492.05 648.97 492.07 C 647.56 491.78 646.73 493.01 645.85 493.83 C 640.64 499.10 635.26 504.20 630.07 509.49 C 631.56 513.97 633.01 518.75 631.67 523.49 C 630.13 530.58 624.80 536.74 617.90 539.04 C 609.77 542.06 600.00 539.24 594.61 532.47 C 588.72 525.58 588.21 514.89 593.31 507.41 C 598.88 498.84 610.89 495.25 620.08 500.01 C 625.94 494.56 631.78 489.07 637.72 483.69 M 603.23 522.64 C 605.28 526.31 609.88 528.59 613.95 526.86 C 619.68 525.00 621.08 516.40 616.33 512.77 C 614.20 510.50 610.86 510.93 608.08 511.22 C 603.54 512.86 601.57 518.24 603.23 522.64 Z" />
<path fill="#ffffff" opacity="1.00" d=" M 452.57 510.61 C 456.52 506.34 462.34 504.25 468.04 503.91 C 474.33 504.48 480.69 507.21 484.52 512.40 C 488.33 517.64 490.30 524.72 488.05 530.99 C 486.21 538.22 480.12 543.85 473.03 545.84 C 473.13 558.67 473.02 571.51 473.08 584.34 C 469.32 584.33 465.56 584.33 461.80 584.35 C 461.77 571.42 461.95 558.49 461.71 545.57 C 456.80 544.03 452.30 540.85 449.73 536.34 C 444.74 528.44 445.87 517.19 452.57 510.61 M 464.51 517.56 C 462.57 518.49 460.86 520.08 460.04 522.10 C 458.03 526.24 460.57 531.80 464.95 533.12 C 470.08 535.44 476.69 530.53 475.97 524.93 C 476.22 519.25 469.55 515.31 464.51 517.56 Z" />
<path fill="#ffffff" opacity="1.00" d=" M 236.71 515.85 C 254.15 515.96 271.59 515.93 289.02 515.93 C 303.04 516.58 317.08 516.67 331.11 516.82 C 331.09 519.93 331.08 523.04 331.09 526.15 C 318.06 526.06 305.03 526.08 291.99 526.07 C 273.52 526.27 255.06 525.08 236.58 525.23 C 236.63 522.10 236.68 518.97 236.71 515.85 Z" />
<path fill="#ffffff" opacity="1.00" d=" M 711.75 515.57 C 740.51 515.98 769.27 515.93 798.04 515.93 C 800.73 515.98 803.42 516.26 806.13 516.29 C 806.10 519.55 806.10 522.81 806.09 526.08 C 788.05 526.38 770.04 525.37 752.00 525.27 C 738.55 525.14 725.10 525.07 711.65 525.09 C 711.70 521.91 711.74 518.74 711.75 515.57 Z" />
<path fill="#ffffff" opacity="1.00" d=" M 710.91 542.92 C 742.42 542.69 773.91 544.26 805.43 543.89 C 805.30 550.62 805.23 557.35 805.19 564.08 C 785.45 564.39 765.74 563.31 746.01 563.24 C 734.29 563.12 722.57 563.09 710.85 563.08 C 710.89 556.36 710.90 549.64 710.91 542.92 Z" />
<path fill="#ffffff" opacity="1.00" d=" M 235.89 543.22 C 267.37 544.16 298.87 543.86 330.35 543.92 C 330.25 550.66 330.18 557.41 330.17 564.16 C 310.44 564.06 290.72 564.06 271.00 564.07 C 259.28 563.47 247.54 563.39 235.81 563.24 C 235.88 556.56 235.90 549.89 235.89 543.22 Z" />
<path fill="#ffffff" opacity="1.00" d=" M 388.87 617.88 C 394.61 617.89 400.34 617.89 406.08 617.88 C 406.07 649.34 406.06 680.79 406.08 712.24 C 400.34 712.24 394.60 712.23 388.87 712.25 C 388.90 680.79 388.88 649.34 388.87 617.88 Z" />
<path fill="#ffffff" opacity="1.00" d=" M 424.93 617.88 C 428.31 617.89 431.69 617.89 435.07 617.88 C 435.07 649.34 435.05 680.79 435.08 712.24 C 431.69 712.23 428.30 712.23 424.92 712.24 C 424.95 680.79 424.93 649.34 424.93 617.88 Z" />
<path fill="#ffffff" opacity="1.00" d=" M 451.54 617.92 C 458.15 617.94 464.76 617.94 471.37 617.92 C 471.37 649.64 471.37 681.36 471.37 713.08 C 464.76 713.05 458.15 713.05 451.54 713.08 C 451.54 681.36 451.54 649.64 451.54 617.92 Z" />
<path fill="#ffffff" opacity="1.00" d=" M 498.72 617.92 C 501.84 617.94 504.97 617.93 508.11 617.93 C 508.10 649.64 508.10 681.36 508.11 713.07 C 504.97 713.06 501.84 713.05 498.72 713.08 C 498.72 681.36 498.72 649.64 498.72 617.92 Z" />
<path fill="#ffffff" opacity="1.00" d=" M 534.93 617.93 C 538.22 617.93 541.51 617.93 544.80 617.93 C 544.80 649.64 544.80 681.36 544.80 713.07 C 541.51 713.06 538.22 713.06 534.93 713.07 C 534.93 681.36 534.93 649.64 534.93 617.93 Z" />
<path fill="#ffffff" opacity="1.00" d=" M 571.76 617.92 C 578.41 617.95 585.07 617.93 591.73 617.93 C 591.73 649.64 591.72 681.35 591.73 713.06 C 585.07 713.07 578.41 713.05 571.76 713.08 C 571.76 681.36 571.76 649.64 571.76 617.92 Z" />
<path fill="#ffffff" opacity="1.00" d=" M 607.93 617.88 C 611.31 617.89 614.69 617.89 618.07 617.88 C 618.07 649.34 618.05 680.79 618.08 712.24 C 614.69 712.23 611.30 712.23 607.92 712.24 C 607.95 680.79 607.93 649.34 607.93 617.88 Z" />
<path fill="#ffffff" opacity="1.00" d=" M 635.85 617.93 C 642.58 617.94 649.33 617.93 656.07 617.93 C 656.06 649.64 656.06 681.36 656.07 713.07 C 649.33 713.06 642.58 713.06 635.85 713.07 C 635.85 681.36 635.85 649.64 635.85 617.93 Z" />
<path fill="#ffffff" opacity="1.00" d=" M 513.68 618.57 C 519.15 618.59 524.62 618.58 530.10 618.58 C 530.06 650.09 530.08 681.59 530.08 713.10 C 524.62 713.09 519.15 713.07 513.69 713.11 C 513.69 681.60 513.71 650.08 513.68 618.57 Z" />
<path fill="#ffffff" opacity="1.00" d=" M 707.03 789.10 C 718.37 780.42 732.69 775.35 747.03 775.89 C 755.34 776.01 763.54 778.91 770.45 783.50 C 774.12 785.84 776.79 789.40 780.38 791.87 C 783.55 786.97 786.38 781.79 790.31 777.44 C 791.15 776.16 792.61 775.78 794.08 775.79 C 794.78 786.49 794.21 797.24 794.39 807.96 C 794.26 814.96 794.69 821.97 794.12 828.95 C 792.39 828.92 789.95 829.78 789.10 827.67 C 788.03 813.94 782.32 800.31 772.07 790.93 C 764.79 784.30 754.90 780.52 745.04 781.11 C 733.57 781.99 722.56 787.38 714.70 795.76 C 707.05 803.19 702.66 813.40 700.70 823.76 C 698.49 833.70 699.08 843.92 699.12 854.03 C 700.27 865.61 703.09 877.45 710.02 887.03 C 717.29 896.74 728.04 904.18 740.15 906.12 C 749.17 908.14 758.79 906.27 766.93 902.07 C 778.39 895.97 786.94 884.61 789.46 871.86 C 790.37 868.19 788.90 863.78 792.12 860.95 C 793.66 861.47 794.39 862.52 794.32 864.09 C 794.31 885.30 778.66 905.34 758.08 910.52 C 737.47 915.80 714.77 907.91 700.16 892.83 C 694.23 887.07 689.69 880.03 686.15 872.60 C 682.59 864.51 680.54 855.81 679.92 847.02 C 679.11 824.89 689.28 802.50 707.03 789.10 Z" />
<path fill="#ffffff" opacity="1.00" d=" M 541.98 778.91 C 546.39 779.14 550.67 777.77 555.08 777.87 C 555.12 817.26 554.95 856.67 555.16 896.06 C 556.19 902.79 564.29 903.21 569.65 902.85 C 569.64 904.58 569.64 906.31 569.65 908.06 C 565.03 907.83 560.55 909.26 555.94 909.10 C 551.30 908.87 546.79 910.28 542.17 910.12 C 542.14 906.06 542.21 902.00 542.11 897.94 C 536.07 904.44 528.07 909.58 519.00 910.09 C 508.16 910.62 497.10 906.29 489.66 898.34 C 481.64 890.37 477.58 879.13 476.89 867.98 C 477.49 859.19 479.94 850.38 485.20 843.20 C 491.21 834.41 500.83 828.33 511.21 826.17 C 519.00 825.13 527.32 825.55 534.24 829.65 C 537.66 831.25 539.82 834.45 542.77 836.67 C 542.95 823.77 542.84 810.88 542.92 797.98 C 543.00 794.69 542.61 791.19 540.78 788.39 C 537.63 784.75 532.28 785.12 527.93 785.13 C 527.93 783.39 527.93 781.67 527.93 779.95 C 532.66 780.15 537.26 778.71 541.98 778.91 M 515.49 829.64 C 503.62 831.87 495.41 843.08 493.66 854.56 C 492.73 861.96 491.77 869.52 492.99 876.96 C 493.14 883.74 495.50 890.41 499.29 896.01 C 502.95 901.48 508.91 905.68 515.59 906.24 C 524.28 907.24 532.79 902.65 538.13 896.00 C 539.88 893.61 542.15 891.17 542.04 888.02 C 542.31 875.03 541.76 862.02 542.45 849.04 C 542.24 836.03 527.44 827.18 515.49 829.64 Z" />
<path fill="#ffffff" opacity="1.00" d=" M 324.87 779.91 C 343.63 779.92 362.39 779.93 381.15 779.91 C 381.14 781.65 381.14 783.39 381.15 785.15 C 375.90 785.21 370.48 784.45 365.42 786.28 C 362.91 787.52 360.91 790.04 361.10 792.97 C 361.08 826.64 361.10 860.32 361.09 894.00 C 360.75 897.34 362.88 900.83 366.12 901.84 C 370.93 903.64 376.14 902.70 381.15 902.85 C 381.14 904.58 381.14 906.33 381.15 908.09 C 362.39 908.07 343.63 908.07 324.87 908.09 C 324.87 906.33 324.86 904.58 324.86 902.85 C 330.12 902.77 335.54 903.56 340.60 901.73 C 342.90 900.31 345.02 897.96 344.90 895.10 C 344.93 861.05 344.92 827.01 344.90 792.97 C 345.08 790.03 343.18 787.04 340.33 786.18 C 335.40 784.27 330.00 785.35 324.86 785.15 C 324.86 783.39 324.87 781.65 324.87 779.91 Z" />
<path fill="#ffffff" opacity="1.00" d=" M 273.93 792.89 C 275.34 792.88 276.76 792.87 278.17 792.88 C 278.27 804.50 277.95 816.13 278.34 827.75 C 287.25 827.76 296.17 827.76 305.09 827.75 C 305.08 829.52 305.08 831.29 305.08 833.07 C 296.11 833.07 287.14 833.05 278.17 833.08 C 278.19 850.73 278.12 868.38 278.20 886.02 C 278.88 892.00 279.28 898.76 283.81 903.26 C 288.43 907.68 296.78 906.51 300.08 901.05 C 305.16 893.16 303.79 883.47 303.92 874.58 C 305.33 874.57 306.74 874.57 308.16 874.58 C 308.21 883.31 308.58 892.46 304.60 900.52 C 302.14 906.19 296.31 910.40 290.02 910.12 C 282.06 910.11 273.20 906.94 269.17 899.64 C 266.85 895.49 265.76 890.67 265.86 885.94 C 265.78 868.32 265.84 850.70 265.83 833.09 C 260.42 833.06 255.01 833.05 249.61 833.09 C 249.60 831.70 249.60 830.33 249.61 828.96 C 257.56 829.68 264.52 823.99 268.15 817.34 C 272.13 809.89 274.19 801.33 273.93 792.89 Z" />
<path fill="#ffffff" opacity="1.00" d=" M 621.03 824.15 C 629.92 824.11 638.99 826.80 646.07 832.33 C 662.46 844.50 668.54 868.79 659.21 887.06 C 651.42 903.44 631.83 913.31 614.08 909.23 C 599.16 906.59 586.76 894.61 582.57 880.19 C 576.62 860.93 586.02 838.12 604.09 828.98 C 609.33 826.15 615.19 824.95 621.03 824.15 M 616.54 828.66 C 607.83 830.24 601.53 837.77 598.96 845.89 C 595.20 857.53 595.50 870.11 597.22 882.09 C 598.29 888.21 601.00 894.12 605.29 898.66 C 611.27 904.82 620.75 907.57 629.00 904.90 C 636.87 902.66 643.24 896.27 645.65 888.47 C 649.18 877.33 648.29 865.43 647.79 853.93 C 646.53 846.13 643.20 838.27 636.94 833.20 C 631.37 828.53 623.55 827.06 616.54 828.66 Z" />
<path fill="#ffffff" opacity="1.00" d=" M 398.13 845.35 C 404.51 833.43 417.21 824.43 431.01 824.58 C 438.96 824.15 447.14 826.68 453.04 832.13 C 461.70 839.74 465.39 851.71 465.13 862.98 C 463.96 863.97 462.56 864.61 461.00 864.42 C 443.37 864.38 425.75 864.48 408.12 864.37 C 407.65 874.48 408.29 885.31 413.89 894.08 C 418.22 899.93 424.59 904.63 431.88 905.83 C 443.75 906.97 456.28 899.35 459.74 887.73 C 460.39 886.07 461.67 883.12 463.90 884.06 C 465.79 886.20 463.98 888.86 463.14 891.04 C 459.24 899.78 451.36 906.71 442.01 908.97 C 432.44 911.68 421.92 909.62 413.55 904.42 C 403.13 898.23 395.57 887.48 393.34 875.55 C 391.73 865.32 392.92 854.45 398.13 845.35 M 416.86 834.94 C 410.79 842.11 408.18 851.68 408.05 860.94 C 423.01 860.90 437.98 860.99 452.94 860.89 C 451.39 854.01 451.38 846.75 448.57 840.18 C 446.57 835.06 442.49 830.53 437.09 829.01 C 429.94 826.41 421.67 829.27 416.86 834.94 Z" />
</g>
<g id="#b5b7ab3d">
<path fill="#b5b7ab" opacity="0.24" d=" M 575.59 355.41 C 576.29 355.01 577.00 354.63 577.73 354.27 C 576.85 355.98 575.82 357.62 575.26 359.48 L 574.30 359.24 C 573.86 360.77 573.29 362.64 571.46 362.93 C 572.42 360.24 574.86 358.25 575.59 355.41 Z" />
<path fill="#b5b7ab" opacity="0.24" d=" M 561.43 378.03 C 561.79 375.91 562.31 373.55 564.81 373.15 C 564.51 374.67 563.11 375.50 562.12 376.55 C 562.24 377.36 562.48 379.00 562.60 379.82 C 562.20 379.22 561.81 378.62 561.43 378.03 Z" />
<path fill="#b5b7ab" opacity="0.24" d=" M 540.15 397.31 C 543.54 397.97 547.61 398.09 550.07 395.22 L 550.85 394.54 C 550.42 395.48 549.99 396.42 549.57 397.37 C 546.51 398.35 542.79 400.25 540.15 397.31 Z" />
</g>
</svg>
