<?xml version="1.0" encoding="UTF-8" standalone="no"?>
<svg
   xmlns:dc="http://purl.org/dc/elements/1.1/"
   xmlns:cc="http://creativecommons.org/ns#"
   xmlns:rdf="http://www.w3.org/1999/02/22-rdf-syntax-ns#"
   xmlns:svg="http://www.w3.org/2000/svg"
   xmlns="http://www.w3.org/2000/svg"
   xmlns:sodipodi="http://sodipodi.sourceforge.net/DTD/sodipodi-0.dtd"
   xmlns:inkscape="http://www.inkscape.org/namespaces/inkscape"
   inkscape:version="1.0 (4035a4fb49, 2020-05-01)"
   sodipodi:docname="tiedoc_logo_without_text_transparent.svg"
   id="svg108"
   version="1.1"
   viewBox="0 0 1044 1044"
   height="1044pt"
   width="1044pt">
  <metadata
     id="metadata114">
    <rdf:RDF>
      <cc:Work
         rdf:about="">
        <dc:format>image/svg+xml</dc:format>
        <dc:type
           rdf:resource="http://purl.org/dc/dcmitype/StillImage" />
        <dc:title></dc:title>
      </cc:Work>
    </rdf:RDF>
  </metadata>
  <defs
     id="defs112" />
  <sodipodi:namedview
     inkscape:current-layer="svg108"
     inkscape:window-maximized="0"
     inkscape:window-y="0"
     inkscape:window-x="0"
     inkscape:cy="744.60228"
     inkscape:cx="589.33158"
     inkscape:zoom="0.42263854"
     showgrid="false"
     id="namedview110"
     inkscape:window-height="901"
     inkscape:window-width="1621"
     inkscape:pageshadow="2"
     inkscape:pageopacity="0"
     guidetolerance="10"
     gridtolerance="10"
     objecttolerance="10"
     borderopacity="1"
     bordercolor="#666666"
     pagecolor="#ffffff" />
  <g
     transform="matrix(1.8273825,0,0,1.8269789,-430.91506,-268.36493)"
     style="fill:#000000;fill-opacity:1"
     id="#ffffffff">
    <path
       style="fill:#000000;fill-opacity:1"
       id="path2"
       d="m 389.85,146.93 c 6.74,0.01 13.48,0 20.22,0 -0.01,31.71 -0.01,63.43 0,95.14 -6.74,0 -13.48,-0.01 -20.22,0 0.01,-31.71 0.01,-63.43 0,-95.14 z"
       opacity="1"
       fill="#ffffff" />
    <path
       style="fill:#000000;fill-opacity:1"
       id="path4"
       d="m 453.9,146.93 c 6.72,0.01 13.45,0.01 20.17,0 0,31.71 0,63.43 0,95.14 -6.72,-0.01 -13.45,-0.01 -20.17,0 0.01,-31.71 0,-63.43 0,-95.14 z"
       opacity="1"
       fill="#ffffff" />
    <path
       style="fill:#000000;fill-opacity:1"
       id="path6"
       d="m 500.9,146.93 c 3.13,0.01 6.26,0.01 9.39,-0.01 0,31.72 0,63.44 0,95.16 -3.13,-0.02 -6.26,-0.02 -9.39,-0.01 0,-31.71 0,-63.43 0,-95.14 z"
       opacity="1"
       fill="#ffffff" />
    <path
       style="fill:#000000;fill-opacity:1"
       id="path8"
       d="m 515.55,146.89 c 5.5,0.03 11.01,0.01 16.52,0.01 0,31.47 -0.02,62.95 0.02,94.42 -5.52,0 -11.04,-0.02 -16.55,0.01 0.02,-31.48 0.01,-62.96 0.01,-94.44 z"
       opacity="1"
       fill="#ffffff" />
    <path
       style="fill:#000000;fill-opacity:1"
       id="path10"
       d="m 537.29,146.94 c 3.26,0 6.52,-0.01 9.78,-0.01 0,31.71 0,63.42 0,95.14 -3.27,0 -6.53,0.02 -9.79,-0.06 0.05,-31.69 0.01,-63.38 0.01,-95.07 z"
       opacity="1"
       fill="#ffffff" />
    <path
       style="fill:#000000;fill-opacity:1"
       id="path12"
       d="m 573.92,146.93 c 6.72,0.01 13.44,0.01 20.16,0 0,31.71 0,63.43 0,95.14 -6.72,-0.01 -13.44,-0.01 -20.16,0 0.01,-31.71 0.01,-63.43 0,-95.14 z"
       opacity="1"
       fill="#ffffff" />
    <path
       style="fill:#000000;fill-opacity:1"
       id="path14"
       d="m 427.84,147.68 c 3.12,0.01 6.24,0.01 9.37,0 -0.04,31.48 -0.02,62.96 -0.01,94.44 -3.12,-0.01 -6.23,-0.01 -9.35,0 0.01,-31.48 0.03,-62.96 -0.01,-94.44 z"
       opacity="1"
       fill="#ffffff" />
    <path
       style="fill:#000000;fill-opacity:1"
       id="path16"
       d="m 610.81,147.68 c 3.11,0.01 6.23,0.01 9.35,0 -0.03,31.48 -0.01,62.96 -0.01,94.44 -3.11,-0.01 -6.22,-0.01 -9.33,0 0,-31.48 0.03,-62.96 -0.01,-94.44 z"
       opacity="1"
       fill="#ffffff" />
    <path
       style="fill:#000000;fill-opacity:1"
       id="path18"
       d="m 639.74,147.67 c 5.78,0.02 11.56,0.01 17.34,0.01 -0.03,31.48 -0.01,62.96 -0.01,94.44 -5.77,-0.01 -11.55,-0.02 -17.32,0.01 0.01,-31.49 0.03,-62.97 -0.01,-94.46 z"
       opacity="1"
       fill="#ffffff" />
    <path
       style="fill:#000000;fill-opacity:1"
       id="path20"
       d="m 386.12,251.25 c 1.93,-0.45 3.93,-0.42 5.91,-0.42 86.97,0 173.95,-0.01 260.92,0 15.35,0.49 30.11,8.69 38.94,21.21 5.44,7.56 8.57,16.68 9.26,25.94 0.04,87.67 0,175.34 0.02,263.02 -0.54,12.42 -5.84,24.67 -14.76,33.38 -8.49,8.72 -20.33,13.99 -32.43,14.78 -88.01,0.02 -176.01,0.03 -264.02,-0.01 -12.08,-0.84 -23.94,-6.05 -32.39,-14.79 -8.7,-8.46 -13.92,-20.28 -14.73,-32.34 -0.03,-87.66 -0.01,-175.33 -0.01,-262.99 0.47,-15.36 8.71,-30.11 21.22,-38.95 6.5,-4.68 14.17,-7.62 22.07,-8.83 m -21.35,32.26 c -2.18,4.89 -1.54,10.32 -1.61,15.51 -0.01,88.66 -0.02,177.31 0.01,265.97 0.09,11.51 10.29,21.81 21.83,21.86 91.33,0.02 182.66,0.01 273.99,0 11.53,-0.06 21.73,-10.33 21.83,-21.84 0.05,-91.01 0,-182.02 0.02,-273.03 0.26,-11.44 -9.3,-21.87 -20.7,-22.69 -7.92,-0.22 -15.86,-0.06 -23.78,-0.07 -0.03,22.06 -0.07,44.13 0.02,66.19 4.47,1.35 8.67,3.86 11.52,7.64 5.58,6.91 5.96,17.4 0.98,24.74 -4.09,6.58 -12.17,10.28 -19.82,9.44 -12.22,-0.76 -21.78,-13.82 -18.72,-25.7 1.69,-7.71 7.89,-14.06 15.5,-16.07 0.01,-22.09 0,-44.17 0,-66.26 -14.77,0.03 -29.55,-0.09 -44.32,0.06 0.05,23.88 0.15,47.76 0.2,71.64 0.1,4.78 -1.66,9.28 -3.99,13.37 -0.73,0.36 -1.44,0.74 -2.14,1.14 -0.73,2.84 -3.17,4.83 -4.13,7.52 l -0.35,0.13 c -1.73,3.6 -4.81,6.39 -6.3,10.09 -2.5,0.4 -3.02,2.76 -3.38,4.88 0.38,0.59 0.77,1.19 1.17,1.79 3.79,6.48 3.66,15 -0.28,21.38 -3.95,7.04 -12.36,11.05 -20.32,10.15 -10.33,-0.7 -18.96,-10.1 -19.18,-20.38 -0.47,-10.09 7.15,-19.77 17.12,-21.58 3.96,-1.33 7.98,0.13 11.93,0.59 5.49,-7.91 11.03,-15.78 16.58,-23.64 0.85,-1.34 2.24,-2.58 2.12,-4.31 0.13,-24.27 0.21,-48.55 0.24,-72.83 -61.61,-0.02 -123.23,0 -184.85,0 -9.1,-0.08 -17.95,5.76 -21.19,14.31 m 262.8,65.15 c -4.91,2.11 -6.17,9.42 -2.35,13.09 2.91,3.37 8.68,3.38 11.71,0.15 3.25,-3.04 3.22,-8.84 -0.2,-11.74 -2.27,-2.53 -6.19,-2.55 -9.16,-1.5 m -87.42,48.65 c 2.64,2.94 6.36,1.04 9.42,0.06 0.42,-0.95 0.85,-1.89 1.28,-2.83 4.32,-5.17 -1.36,-13.93 -7.95,-12.39 -7.51,0.44 -9.51,12.2 -2.75,15.16 z"
       opacity="1"
       fill="#ffffff" />
    <path
       style="fill:#000000;fill-opacity:1"
       id="path22"
       d="m 713.84,295.92 c 15.72,-0.27 31.4,0.67 47.11,0.77 15.75,0.19 31.49,0.23 47.23,0.23 -0.04,5.72 -0.07,11.45 -0.07,17.18 -13.36,-0.04 -26.72,-0.04 -40.09,-0.02 -18.09,-0.81 -36.2,-0.87 -54.31,-0.94 0.06,-5.74 0.11,-11.48 0.13,-17.22 z"
       opacity="1"
       fill="#ffffff" />
    <path
       style="fill:#000000;fill-opacity:1"
       id="path24"
       d="m 238.8,296.42 c 31.45,0.84 62.92,0.17 94.37,0.72 -0.06,5.72 -0.08,11.45 -0.06,17.17 -31.5,-0.56 -63.01,0.32 -94.48,-0.9 0.1,-5.67 0.16,-11.33 0.17,-16.99 z"
       opacity="1"
       fill="#ffffff" />
    <path
       style="fill:#000000;fill-opacity:1"
       id="path26"
       d="m 364.23,315.74 c 28.94,-0.02 57.88,0 86.83,-0.02 2.38,0.02 4.79,-0.1 7.16,0.33 3.19,0.9 5.67,3.19 8.25,5.15 5.27,4.17 10.59,8.27 15.89,12.41 4.68,-2.47 10.21,-4.53 15.52,-3.06 6.5,1.11 12.37,5.46 15.23,11.41 3.3,6.57 2.81,14.89 -1.3,21 -4.29,6.9 -12.88,10.49 -20.84,9.24 -13.18,-1.47 -22.36,-17.51 -16,-29.41 -5.79,-4.88 -12.06,-9.16 -17.98,-13.88 -1.28,-0.8 -2.4,-2.23 -4.01,-2.22 -16.67,0.42 -33.35,-0.2 -50.01,0.39 -13,-0.11 -26.01,0.15 -39.01,-0.14 0.13,-3.73 0.18,-7.47 0.27,-11.2 m 127.27,27.84 c -6.65,1.82 -7.56,12.15 -1.44,15.18 4.28,2.79 10.69,0.19 11.99,-4.69 2.52,-6.08 -4.49,-13.02 -10.55,-10.49 z"
       opacity="1"
       fill="#ffffff" />
    <path
       style="fill:#000000;fill-opacity:1"
       id="path28"
       d="m 238.23,332.89 c 14.58,0.05 29.17,0.04 43.75,0.04 17.02,0.8 34.06,0.82 51.1,0.93 -0.02,3.11 -0.02,6.22 0,9.33 -26.68,-0.35 -53.37,0.35 -80.02,-0.66 -5.06,-0.1 -10.11,-0.21 -15.16,-0.22 0.01,-3.15 0.13,-6.28 0.33,-9.42 z"
       opacity="1"
       fill="#ffffff" />
    <path
       style="fill:#000000;fill-opacity:1"
       id="path30"
       d="m 713.36,332.65 c 31.57,0.59 63.17,-0.2 94.73,0.8 -0.03,3.21 -0.03,6.42 -0.02,9.63 -31.69,0.31 -63.35,-1.27 -95.04,-0.99 0.11,-3.15 0.22,-6.29 0.33,-9.44 z"
       opacity="1"
       fill="#ffffff" />
    <path
       style="fill:#000000;fill-opacity:1"
       id="path32"
       d="m 237.8,358.92 c 7.05,0.03 14.11,0.01 21.16,0 24.38,1.03 48.79,0.92 73.19,0.99 -0.05,6.73 -0.06,13.45 -0.06,20.17 -31.52,0.28 -63.01,-1.32 -94.54,-0.97 0.12,-6.73 0.2,-13.46 0.25,-20.19 z"
       opacity="1"
       fill="#ffffff" />
    <path
       style="fill:#000000;fill-opacity:1"
       id="path34"
       d="m 712.83,358.85 c 13.05,0.09 26.11,0.07 39.16,0.08 18.4,-0.22 36.78,0.98 55.19,0.84 -0.06,6.68 -0.09,13.35 -0.08,20.03 -31.48,-0.81 -62.98,-0.73 -94.47,-0.72 0.1,-6.74 0.17,-13.49 0.2,-20.23 z"
       opacity="1"
       fill="#ffffff" />
    <path
       style="fill:#000000;fill-opacity:1"
       id="path36"
       d="m 364.02,369.93 c 14.33,0.01 28.66,0.01 42.99,0 4.02,0.14 8.25,0.87 11.57,3.3 6.39,4.71 12.52,9.76 18.91,14.46 1.69,0.81 3.37,-0.84 4.99,-1.23 5.9,-1.78 12.69,-1.17 17.89,2.29 7.53,4.55 11.41,14.28 9.23,22.78 -1.37,5.18 -4.49,10.04 -9.16,12.81 -6.77,4.46 -16.09,4.46 -22.85,-0.02 -8.57,-5.23 -12.23,-17.1 -7.95,-26.22 -6.14,-5.19 -12.6,-9.97 -18.85,-15.03 -15.61,0 -31.22,0.01 -46.84,0 -0.05,-4.38 -0.17,-8.76 0.07,-13.14 m 83.27,28.41 c -6.73,1.14 -8.83,10.88 -3.41,14.82 4.55,3.93 12.58,0.94 13.28,-5.07 1.35,-5.59 -4.32,-11.17 -9.87,-9.75 z"
       opacity="1"
       fill="#ffffff" />
    <path
       style="fill:#000000;fill-opacity:1"
       id="path38"
       d="m 236.93,405.93 c 31.7,0.73 63.42,1.14 95.14,1 0,3.26 0,6.53 -0.04,9.8 -31.69,-0.74 -63.4,-0.66 -95.1,-0.66 0,-3.38 0,-6.76 0,-10.14 z"
       opacity="1"
       fill="#ffffff" />
    <path
       style="fill:#000000;fill-opacity:1"
       id="path40"
       d="m 711.94,405.9 c 19,0.19 38.03,-0.35 57.02,0.49 12.7,0.3 25.41,0.41 38.11,0.47 -0.01,3.11 -0.02,6.22 0.01,9.33 -21.05,-0.14 -42.09,-0.13 -63.13,-0.12 -10.62,-0.42 -21.24,-0.82 -31.86,-0.68 -0.24,-3.16 -0.17,-6.33 -0.15,-9.49 z"
       opacity="1"
       fill="#ffffff" />
    <path
       style="fill:#000000;fill-opacity:1"
       id="path42"
       d="m 236.88,420.93 c 9.68,-0.21 19.34,0.46 29.02,0.59 21.78,0.39 43.57,0.41 65.35,0.4 -0.06,5.54 -0.11,11.08 -0.1,16.62 -25.03,-0.56 -50.08,-0.42 -75.12,-0.47 -6.4,-0.06 -12.81,0.2 -19.19,-0.33 -0.07,-5.6 0.05,-11.21 0.04,-16.81 z"
       opacity="1"
       fill="#ffffff" />
    <path
       style="fill:#000000;fill-opacity:1"
       id="path44"
       d="m 711.89,420.88 c 15.37,0.07 30.74,0.05 46.11,0.05 16.08,0.74 32.19,0.81 48.29,0.92 -0.06,5.42 -0.11,10.85 -0.12,16.28 -17.05,-0.06 -34.09,-0.08 -51.13,-0.05 -14.4,-0.64 -28.81,-0.78 -43.22,-0.9 0.04,-5.44 0.06,-10.87 0.07,-16.3 z"
       opacity="1"
       fill="#ffffff" />
    <path
       style="fill:#000000;fill-opacity:1"
       id="path46"
       d="m 633.61,430.69 c 3.43,-3.59 8.35,-5.95 13.35,-5.81 10.04,0.03 20.08,0.01 30.12,0.01 -0.01,3.73 -0.01,7.47 0,11.2 -10.04,0.01 -20.08,-0.04 -30.12,0.02 -2.26,-0.06 -4.23,1.28 -5.8,2.77 -7.14,6.98 -14.35,13.88 -21.4,20.94 -4.02,3.56 -9.53,5.09 -14.8,5.26 -15.53,-0.04 -31.06,0.02 -46.58,-0.03 -1.9,7.41 -7.98,13.54 -15.47,15.24 -12.15,3.67 -25.96,-6.65 -26.09,-19.32 -0.63,-7.59 3.47,-15.32 10.02,-19.18 6.19,-3.93 14.49,-4.13 20.94,-0.68 5.29,2.8 9.28,7.93 10.67,13.77 16.93,0.13 33.85,-0.71 50.77,-1.01 2.61,-0.47 4.49,-2.58 6.27,-4.39 5.95,-6.35 12.03,-12.58 18.12,-18.79 m -97.16,20.84 c -2.95,0.6 -5.61,2.7 -6.48,5.65 -2.01,5.07 2.58,11.46 8.1,10.8 6.19,0.47 9.93,-7.12 7.14,-12.22 -1.71,-2.97 -5.34,-4.92 -8.76,-4.23 z"
       opacity="1"
       fill="#ffffff" />
    <path
       style="fill:#000000;fill-opacity:1"
       id="path48"
       d="m 236.89,442.81 c 20.37,0.16 40.75,0.11 61.12,0.12 11.09,0.56 22.2,0.67 33.3,0.81 -0.06,3.12 -0.08,6.25 -0.09,9.38 -19.38,-0.25 -38.78,0.36 -58.14,-0.5 -12.07,-0.3 -24.15,-0.4 -36.22,-0.48 0.02,-3.11 0.03,-6.22 0.03,-9.33 z"
       opacity="1"
       fill="#ffffff" />
    <path
       style="fill:#000000;fill-opacity:1"
       id="path50"
       d="m 711.89,442.34 c 31.49,0.74 62.99,0.56 94.49,0.58 -0.06,3.38 -0.11,6.77 -0.13,10.16 -15.1,0.18 -30.17,-0.83 -45.27,-0.8 -16.37,-0.18 -32.73,-0.2 -49.1,-0.2 0.01,-3.25 0.02,-6.5 0.01,-9.74 z"
       opacity="1"
       fill="#ffffff" />
    <path
       style="fill:#000000;fill-opacity:1"
       id="path52"
       d="m 392.75,488.85 c -3.69,-12.11 6.61,-25.96 19.26,-26.08 8.15,-0.7 16.46,4.02 20.03,11.39 2.21,3.89 2.53,8.48 2.09,12.85 -1.15,8.36 -7.86,15.52 -16.08,17.38 0.07,26.69 0.08,53.37 0.42,80.05 -3.53,-0.02 -7.06,-0.02 -10.58,-0.01 0.06,-26.68 -0.03,-53.36 0.04,-80.04 -7.32,-2.12 -13.5,-8.01 -15.18,-15.54 m 16.62,-12.45 c -5.1,2.52 -5.97,10.24 -1.53,13.78 4.28,3.75 11.96,1.65 13.39,-3.99 2.51,-6.61 -5.78,-13.54 -11.86,-9.79 z"
       opacity="1"
       fill="#ffffff" />
    <path
       style="fill:#000000;fill-opacity:1"
       id="path54"
       d="m 236.65,479.31 c 5.49,-1.07 11.55,0.15 17.27,0.02 25.71,0.66 51.44,0.57 77.17,0.6 -0.02,6.72 -0.03,13.44 -0.02,20.17 -19,-0.2 -38.03,0.36 -57.02,-0.5 -12.65,-0.29 -25.3,-0.41 -37.96,-0.46 0.29,-6.61 0.32,-13.23 0.56,-19.83 z"
       opacity="1"
       fill="#ffffff" />
    <path
       style="fill:#000000;fill-opacity:1"
       id="path56"
       d="m 711.7,478.89 c 13.1,0.07 26.2,0.04 39.3,0.04 18.36,0.82 36.74,0.84 55.11,0.95 -0.04,6.73 -0.04,13.46 -0.04,20.19 -10.02,0.21 -20.02,-0.46 -30.04,-0.6 -21.56,-0.38 -43.13,-0.4 -64.69,-0.39 0.16,-6.73 0.29,-13.46 0.36,-20.19 z"
       opacity="1"
       fill="#ffffff" />
    <path
       style="fill:#000000;fill-opacity:1"
       id="path58"
       d="m 637.72,483.69 c 3.17,-2.5 7.24,-4 11.31,-3.85 10.37,-0.02 20.75,-0.01 31.13,-0.01 -0.02,4.08 0,8.16 -0.02,12.24 -10.39,0.01 -20.79,-0.02 -31.17,0 -1.41,-0.29 -2.24,0.94 -3.12,1.76 -5.21,5.27 -10.59,10.37 -15.78,15.66 1.49,4.48 2.94,9.26 1.6,14 -1.54,7.09 -6.87,13.25 -13.77,15.55 -8.13,3.02 -17.9,0.2 -23.29,-6.57 -5.89,-6.89 -6.4,-17.58 -1.3,-25.06 5.57,-8.57 17.58,-12.16 26.77,-7.4 5.86,-5.45 11.7,-10.94 17.64,-16.32 m -34.49,38.95 c 2.05,3.67 6.65,5.95 10.72,4.22 5.73,-1.86 7.13,-10.46 2.38,-14.09 -2.13,-2.27 -5.47,-1.84 -8.25,-1.55 -4.54,1.64 -6.51,7.02 -4.85,11.42 z"
       opacity="1"
       fill="#ffffff" />
    <path
       style="fill:#000000;fill-opacity:1"
       id="path60"
       d="m 452.57,510.61 c 3.95,-4.27 9.77,-6.36 15.47,-6.7 6.29,0.57 12.65,3.3 16.48,8.49 3.81,5.24 5.78,12.32 3.53,18.59 -1.84,7.23 -7.93,12.86 -15.02,14.85 0.1,12.83 -0.01,25.67 0.05,38.5 -3.76,-0.01 -7.52,-0.01 -11.28,0.01 -0.03,-12.93 0.15,-25.86 -0.09,-38.78 -4.91,-1.54 -9.41,-4.72 -11.98,-9.23 -4.99,-7.9 -3.86,-19.15 2.84,-25.73 m 11.94,6.95 c -1.94,0.93 -3.65,2.52 -4.47,4.54 -2.01,4.14 0.53,9.7 4.91,11.02 5.13,2.32 11.74,-2.59 11.02,-8.19 0.25,-5.68 -6.42,-9.62 -11.46,-7.37 z"
       opacity="1"
       fill="#ffffff" />
    <path
       style="fill:#000000;fill-opacity:1"
       id="path62"
       d="m 236.71,515.85 c 17.44,0.11 34.88,0.08 52.31,0.08 14.02,0.65 28.06,0.74 42.09,0.89 -0.02,3.11 -0.03,6.22 -0.02,9.33 -13.03,-0.09 -26.06,-0.07 -39.1,-0.08 -18.47,0.2 -36.93,-0.99 -55.41,-0.84 0.05,-3.13 0.1,-6.26 0.13,-9.38 z"
       opacity="1"
       fill="#ffffff" />
    <path
       style="fill:#000000;fill-opacity:1"
       id="path64"
       d="m 711.75,515.57 c 28.76,0.41 57.52,0.36 86.29,0.36 2.69,0.05 5.38,0.33 8.09,0.36 -0.03,3.26 -0.03,6.52 -0.04,9.79 -18.04,0.3 -36.05,-0.71 -54.09,-0.81 -13.45,-0.13 -26.9,-0.2 -40.35,-0.18 0.05,-3.18 0.09,-6.35 0.1,-9.52 z"
       opacity="1"
       fill="#ffffff" />
    <path
       style="fill:#000000;fill-opacity:1"
       id="path66"
       d="m 710.91,542.92 c 31.51,-0.23 63,1.34 94.52,0.97 -0.13,6.73 -0.2,13.46 -0.24,20.19 -19.74,0.31 -39.45,-0.77 -59.18,-0.84 -11.72,-0.12 -23.44,-0.15 -35.16,-0.16 0.04,-6.72 0.05,-13.44 0.06,-20.16 z"
       opacity="1"
       fill="#ffffff" />
    <path
       style="fill:#000000;fill-opacity:1"
       id="path68"
       d="m 235.89,543.22 c 31.48,0.94 62.98,0.64 94.46,0.7 -0.1,6.74 -0.17,13.49 -0.18,20.24 -19.73,-0.1 -39.45,-0.1 -59.17,-0.09 -11.72,-0.6 -23.46,-0.68 -35.19,-0.83 0.07,-6.68 0.09,-13.35 0.08,-20.02 z"
       opacity="1"
       fill="#ffffff" />
    <path
       style="fill:#000000;fill-opacity:1"
       id="path70"
       d="m 388.87,617.88 c 5.74,0.01 11.47,0.01 17.21,0 -0.01,31.46 -0.02,62.91 0,94.36 -5.74,0 -11.48,-0.01 -17.21,0.01 0.03,-31.46 0.01,-62.91 0,-94.37 z"
       opacity="1"
       fill="#ffffff" />
    <path
       style="fill:#000000;fill-opacity:1"
       id="path72"
       d="m 424.93,617.88 c 3.38,0.01 6.76,0.01 10.14,0 0,31.46 -0.02,62.91 0.01,94.36 -3.39,-0.01 -6.78,-0.01 -10.16,0 0.03,-31.45 0.01,-62.9 0.01,-94.36 z"
       opacity="1"
       fill="#ffffff" />
    <path
       style="fill:#000000;fill-opacity:1"
       id="path74"
       d="m 451.54,617.92 c 6.61,0.02 13.22,0.02 19.83,0 0,31.72 0,63.44 0,95.16 -6.61,-0.03 -13.22,-0.03 -19.83,0 0,-31.72 0,-63.44 0,-95.16 z"
       opacity="1"
       fill="#ffffff" />
    <path
       style="fill:#000000;fill-opacity:1"
       id="path76"
       d="m 498.72,617.92 c 3.12,0.02 6.25,0.01 9.39,0.01 -0.01,31.71 -0.01,63.43 0,95.14 -3.14,-0.01 -6.27,-0.02 -9.39,0.01 0,-31.72 0,-63.44 0,-95.16 z"
       opacity="1"
       fill="#ffffff" />
    <path
       style="fill:#000000;fill-opacity:1"
       id="path78"
       d="m 534.93,617.93 c 3.29,0 6.58,0 9.87,0 0,31.71 0,63.43 0,95.14 -3.29,-0.01 -6.58,-0.01 -9.87,0 0,-31.71 0,-63.43 0,-95.14 z"
       opacity="1"
       fill="#ffffff" />
    <path
       style="fill:#000000;fill-opacity:1"
       id="path80"
       d="m 571.76,617.92 c 6.65,0.03 13.31,0.01 19.97,0.01 0,31.71 -0.01,63.42 0,95.13 -6.66,0.01 -13.32,-0.01 -19.97,0.02 0,-31.72 0,-63.44 0,-95.16 z"
       opacity="1"
       fill="#ffffff" />
    <path
       style="fill:#000000;fill-opacity:1"
       id="path82"
       d="m 607.93,617.88 c 3.38,0.01 6.76,0.01 10.14,0 0,31.46 -0.02,62.91 0.01,94.36 -3.39,-0.01 -6.78,-0.01 -10.16,0 0.03,-31.45 0.01,-62.9 0.01,-94.36 z"
       opacity="1"
       fill="#ffffff" />
    <path
       style="fill:#000000;fill-opacity:1"
       id="path84"
       d="m 635.85,617.93 c 6.73,0.01 13.48,0 20.22,0 -0.01,31.71 -0.01,63.43 0,95.14 -6.74,-0.01 -13.49,-0.01 -20.22,0 0,-31.71 0,-63.43 0,-95.14 z"
       opacity="1"
       fill="#ffffff" />
    <path
       style="fill:#000000;fill-opacity:1"
       id="path86"
       d="m 513.68,618.57 c 5.47,0.02 10.94,0.01 16.42,0.01 -0.04,31.51 -0.02,63.01 -0.02,94.52 -5.46,-0.01 -10.93,-0.03 -16.39,0.01 0,-31.51 0.02,-63.03 -0.01,-94.54 z"
       opacity="1"
       fill="#ffffff" />
  </g>
  <g
     transform="matrix(1.8273825,0,0,1.8269789,-430.91506,-268.36493)"
     style="fill:#000000;fill-opacity:1"
     id="#b5b7ab3d">
    <path
       style="fill:#000000;fill-opacity:1"
       id="path101"
       d="m 575.59,355.41 c 0.7,-0.4 1.41,-0.78 2.14,-1.14 -0.88,1.71 -1.91,3.35 -2.47,5.21 l -0.96,-0.24 c -0.44,1.53 -1.01,3.4 -2.84,3.69 0.96,-2.69 3.4,-4.68 4.13,-7.52 z"
       opacity="0.24"
       fill="#b5b7ab" />
    <path
       style="fill:#000000;fill-opacity:1"
       id="path103"
       d="m 561.43,378.03 c 0.36,-2.12 0.88,-4.48 3.38,-4.88 -0.3,1.52 -1.7,2.35 -2.69,3.4 0.12,0.81 0.36,2.45 0.48,3.27 -0.4,-0.6 -0.79,-1.2 -1.17,-1.79 z"
       opacity="0.24"
       fill="#b5b7ab" />
    <path
       style="fill:#000000;fill-opacity:1"
       id="path105"
       d="m 540.15,397.31 c 3.39,0.66 7.46,0.78 9.92,-2.09 l 0.78,-0.68 c -0.43,0.94 -0.86,1.88 -1.28,2.83 -3.06,0.98 -6.78,2.88 -9.42,-0.06 z"
       opacity="0.24"
       fill="#b5b7ab" />
  </g>
</svg>
